<svg xmlns="http://www.w3.org/2000/svg" width="150" height="48" viewBox="0 0 150 48" fill="none">
<g clip-path="url(#clip0_368_520)">
<path d="M145.953 47.4367H3.91452C2.21211 47.4367 0.831848 46.0564 0.831848 44.354V3.64509C0.831848 1.94263 2.21211 0.5625 3.91452 0.5625H145.953C147.655 0.5625 149.035 1.94263 149.035 3.64509V44.354C149.035 46.0564 147.655 47.4367 145.953 47.4367Z" fill="#FFE41B"/>
<path d="M19.5203 20.586C19.5173 18.9247 19.5322 17.2632 19.5114 15.605C19.5054 15.2231 19.6276 15.0501 19.9856 14.916C23.7318 13.514 27.4691 12.0913 31.2154 10.6925C31.5315 10.5732 31.6628 10.436 31.6568 10.087C31.636 8.71191 31.6479 7.33987 31.6448 5.96482C31.6448 5.81581 31.6209 5.66659 31.6061 5.51758H9.00031V42.3177H19.4815C19.4935 42.1358 19.5173 41.9569 19.5173 41.778C19.5203 38.1094 19.5203 34.4436 19.5203 30.775V30.1694H31.791V21.108H19.5471C19.5382 20.9081 19.5203 20.7471 19.5203 20.586Z" fill="#1F1C4A"/>
<path d="M44.5497 40.4405C40.1354 40.4405 36.838 36.7396 36.838 32.457C36.838 27.3285 39.6566 23.8387 44.2836 23.8387H44.5497C48.8046 23.8387 51.9956 27.9628 51.9956 32.6685C51.9956 37.268 48.964 40.4405 44.5497 40.4405ZM44.2836 21.8826C38.7525 21.8826 34.657 26.4297 34.657 32.2984C34.657 38.1142 38.6461 42.2908 44.2836 42.2908H44.5497C50.028 42.2908 53.8572 38.0612 53.8572 32.457C53.8572 26.5883 50.0811 21.8826 44.2836 21.8826Z" fill="#1F1C4A"/>
<path d="M64.3346 21.8826C62.2604 21.8826 59.9203 23.2572 58.4309 25.6894V22.3055H55.9845V41.6039H58.4309V30.2362C58.4309 26.7995 61.4626 23.8389 64.4942 23.8389C64.7068 23.8389 65.3452 23.9447 65.8769 24.1033L65.6111 21.8826H64.3346Z" fill="#1F1C4A"/>
<path d="M90.1823 21.9883C87.47 21.9883 84.4382 23.363 83.1623 25.6895C82.3106 23.5218 79.971 22.0939 76.9391 22.0939C74.2271 22.0939 71.5674 23.363 70.8229 25.372V22.3056H68.3763V41.6036H70.8229V29.6546C70.8229 26.3241 73.7476 24.209 76.8865 24.209C79.1193 24.209 80.9813 25.319 80.9813 27.4871V41.6036H83.4809V29.3378C83.4809 26.3767 86.087 24.1033 89.3846 24.1033C91.8847 24.1033 93.693 25.319 93.693 27.2226V41.6036H96.2458V26.9051C96.2458 24.0505 93.693 21.9883 90.1823 21.9883Z" fill="#1F1C4A"/>
<path d="M114.116 33.356C114.116 37.1628 110.393 40.4933 106.51 40.4933L106.084 40.4407C103.106 40.4407 101.138 38.1673 101.138 35.2063V22.3059H98.6917V35.5238C98.6917 40.0176 101.191 42.5025 105.446 42.5025C109.275 42.5025 113.584 40.2291 114.116 37.9557V41.6037H116.668V22.3059H114.116V33.356Z" fill="#1F1C4A"/>
<path d="M121.242 15.4854H119.114V41.6037H121.242V15.4854Z" fill="#1F1C4A"/>
<path d="M132.942 21.9883C130.602 21.9883 128.528 22.3056 126.666 22.94L126.294 25.0548C127.942 24.3149 130.709 23.8388 133.102 23.8388C135.974 23.8388 138.42 24.7906 138.42 26.7469V26.9051C138.26 28.1214 137.622 28.9673 136.505 29.4434L132.464 30.5534C125.709 32.4037 124.166 34.0958 124.166 37.0568C124.166 40.4402 126.453 42.2909 130.974 42.2909C132.517 42.2909 134.91 41.8678 135.655 41.6036L135.974 39.8059C134.644 40.2287 133.049 40.5462 131.559 40.5462C128.794 40.5462 126.985 39.5417 126.666 37.6384V37.3739C126.613 37.321 126.613 37.215 126.56 37.0568C126.56 32.8798 134.378 32.7212 138.42 30.2363V41.6036H140.867V26.9051C140.867 23.786 137.888 21.9883 132.942 21.9883Z" fill="#1F1C4A"/>
</g>
<defs>
<clipPath id="clip0_368_520">
<rect width="150" height="48" fill="white"/>
</clipPath>
</defs>
</svg>